<?xml version="1.0" encoding="utf-8"?>
<!-- Generator: Adobe Illustrator 19.2.1, SVG Export Plug-In . SVG Version: 6.00 Build 0)  -->
<svg version="1.1" id="Layer_1" xmlns="http://www.w3.org/2000/svg" xmlns:xlink="http://www.w3.org/1999/xlink" x="0px" y="0px"
	 viewBox="0 0 29.7 15.1" style="enable-background:new 0 0 29.7 15.1;" xml:space="preserve">
<style type="text/css">
	.st0{fill-rule:evenodd;clip-rule:evenodd;fill:#FFFFFF;}
</style>
<g>
	<path class="st0" d="M5.5,0L3.2,3.9l1.2-0.4L2.1,7.6l1.4-0.7l-2.4,4.3l1.6-0.8L0,15.1h13.3v-1.7h0.3l1.8,1.7h3.5l-2.5-2.5l1.4-1.4
		l0-4.1h-3.9l-0.4,0.3V6.3l4.1-4l3.9,3.8h0.8l3.5-3.4L29,6.1h0.6l-4.7-4.7l-3.7,3.7l-5-5.1L8.7,7.5L6.4,3.4L7.6,4L5.5,0L5.5,0z
		 M8.6,7.7L8.1,8.2L7.2,6.9L8.6,7.7L8.6,7.7z M10.5,9.1v5.2L8.5,11L10.5,9.1L10.5,9.1z M14.8,8.7v2.1h-1.5v-0.6L14.8,8.7L14.8,8.7z"
		/>
	<polygon class="st0" points="25.4,7.1 25.4,8.9 22.3,8.9 22.3,10 25.5,10 25.5,11.9 22.3,11.9 22.3,13 25.5,13 25.5,15.1 
		19.3,15.1 19.3,7.1 25.4,7.1 	"/>
	<polygon class="st0" points="27,15.1 29.7,15.1 29.7,7.1 27,7.1 27,15.1 	"/>
</g>
</svg>
